PathFileType	4	(X/Y/Z)	C:/Users/opensim2020/Desktop/walking_exp_matlab/subject02_walking10_straight_04.trc	
DataRate	CameraRate	NumFrames	NumMarkers	Units	OrigDataRate	OrigDataStartFrame	OrigNumFrames	
100.00	100.00	5	43	mm	100.00	3247	260	
Frame#	Time	LFHD			RFHD			LBHD			RBHD			C7			T10			CLAV			STRN			RBAK			LSHO			LUPA			LELB			LFRM			LWRA			LWRB			LFIN			RSHO			RUPA			RELB			RFRM			RWRA			RWRB			RFIN			LASI			RASI			LPSI			RPSI			LTHI			LKNE			LTIB			LANK			LHEE			LTOE			RTHI			RKNE			RTIB			RANK			RHEE			RTOE			*39			*40			*41			*42			
		X1	Y1	Z1	X2	Y2	Z2	X3	Y3	Z3	X4	Y4	Z4	X5	Y5	Z5	X6	Y6	Z6	X7	Y7	Z7	X8	Y8	Z8	X9	Y9	Z9	X10	Y10	Z10	X11	Y11	Z11	X12	Y12	Z12	X13	Y13	Z13	X14	Y14	Z14	X15	Y15	Z15	X16	Y16	Z16	X17	Y17	Z17	X18	Y18	Z18	X19	Y19	Z19	X20	Y20	Z20	X21	Y21	Z21	X22	Y22	Z22	X23	Y23	Z23	X24	Y24	Z24	X25	Y25	Z25	X26	Y26	Z26	X27	Y27	Z27	X28	Y28	Z28	X29	Y29	Z29	X30	Y30	Z30	X31	Y31	Z31	X32	Y32	Z32	X33	Y33	Z33	X34	Y34	Z34	X35	Y35	Z35	X36	Y36	Z36	X37	Y37	Z37	X38	Y38	Z38	X39	Y39	Z39	X40	Y40	Z40	X41	Y41	Z41	X42	Y42	Z42	X43	Y43	Z43	

196	1.950	-1096.76416	-816.01617	1736.31995	-1238.73633	-828.53583	1718.51855	-1102.02222	-682.26318	1668.00769	-1243.73547	-682.15503	1648.29565	-1186.97620	-631.53583	1525.30920	-1197.89758	-577.05579	1249.92712	-1152.09888	-766.67670	1455.23438	-1160.36145	-818.78406	1283.10437	-1263.81543	-585.21277	1353.47485	-997.11206	-667.50696	1494.23499	-923.89838	-617.90363	1298.73804	-918.62195	-591.24500	1162.47034	-895.67126	-563.32941	1036.46716	-893.15790	-594.16632	899.33850	-883.04517	-540.70209	914.97772	-868.90930	-542.89349	848.75879	-1354.86597	-742.91895	1496.30396	-1448.93091	-762.69849	1307.17908	-1465.20398	-806.92902	1166.55786	-1474.63806	-862.82660	1059.77966	-1443.51135	-929.45135	944.79132	-1487.15259	-895.09131	933.90161	-1481.35315	-945.68756	882.47211	-1032.81714	-801.76001	995.02795	-1289.31885	-822.71051	973.85242	-1130.89954	-598.04071	1029.70142	-1245.12659	-601.45862	1027.95630	-954.77618	-778.95325	690.79340	-979.02551	-807.00671	488.14230	-982.82605	-801.28918	293.44037	-985.92035	-875.29419	77.83752	-1045.64661	-870.72424	43.92926	-924.13831	-1017.97424	76.59395	-1338.62585	-726.63580	666.66937	-1289.57056	-696.85254	458.28397	-1291.54785	-634.06189	280.16757	-1246.06970	-593.17084	92.16919	-1190.70447	-551.59192	41.23985	-1254.20898	-742.49908	32.82674	-1194.88525	-725.61938	1806.23645	-3356.88110	2846.11230	1034.22437						 
197	1.960	-1095.28296	-822.34058	1735.03992	-1237.47864	-835.54999	1717.75842	-1101.07373	-689.53558	1666.98486	-1242.88184	-689.14618	1647.52002	-1186.39453	-638.32715	1524.44287	-1197.72974	-583.57092	1249.24878	-1151.45447	-773.40894	1454.20959	-1159.77368	-825.29089	1282.06274	-1263.38403	-591.86603	1352.70410	-996.62927	-673.90186	1493.26526	-923.49042	-624.28583	1297.92346	-918.47650	-596.99243	1161.96326	-895.27869	-567.02478	1036.84277	-892.38440	-596.66168	899.06848	-882.50330	-542.53308	915.27295	-868.78809	-544.22314	848.84387	-1354.27100	-749.82910	1495.45288	-1448.12366	-770.54181	1306.33398	-1464.59631	-816.45227	1166.25146	-1473.75208	-873.90253	1059.99768	-1441.69641	-941.81567	946.15283	-1485.70691	-907.59106	934.55988	-1479.29199	-959.11395	884.11414	-1032.53638	-808.40814	994.06744	-1289.12476	-829.22827	973.10901	-1130.42627	-604.79657	1028.75073	-1244.69409	-608.00476	1027.16943	-955.62177	-785.74951	689.31073	-980.66779	-816.08710	487.20914	-982.85895	-816.24152	292.57361	-984.34552	-896.58215	79.15246	-1044.07129	-892.77338	45.11094	-924.27734	-1040.70313	80.49485	-1338.43347	-731.46960	666.18762	-1289.53772	-700.05548	457.98352	-1291.47693	-635.71283	280.35239	-1245.91846	-593.52588	92.53693	-1190.66187	-551.58942	41.89692	-1254.31042	-742.58362	32.84621	-1193.62378	-732.56079	1805.35999									 
198	1.970	-1093.94751	-829.42383	1734.31824	-1236.11670	-842.53094	1716.96667	-1100.32227	-695.39471	1665.79749	-1241.95081	-696.16022	1646.91638	-1185.77539	-645.08289	1523.57861	-1196.83411	-590.26294	1248.35156	-1150.68066	-780.12299	1453.18921	-1159.10449	-832.20660	1281.23157	-1262.41333	-598.81232	1351.83301	-995.97205	-680.45416	1492.36230	-922.75989	-631.50897	1297.05103	-918.11438	-602.97119	1161.41321	-895.16296	-571.62531	1036.37158	-891.51080	-598.45734	898.55304	-881.82648	-545.19904	915.67798	-868.26947	-545.46790	849.19427	-1353.58325	-756.63660	1494.67261	-1447.31409	-778.22656	1305.41028	-1463.20557	-825.75891	1165.50305	-1472.15332	-884.48334	1060.12659	-1439.71729	-953.86621	947.52539	-1483.38074	-919.92010	935.14148	-1477.16162	-972.22736	885.54675	-1032.23718	-815.12872	993.07361	-1288.93677	-835.78900	972.32928	-1129.93311	-611.52863	1027.87012	-1244.27710	-614.57422	1026.47449	-956.33105	-792.78491	687.86267	-982.02734	-825.39172	486.35468	-983.02661	-830.56665	292.06088	-982.89807	-916.97437	80.73717	-1042.72961	-913.24695	46.70761	-924.37592	-1062.36682	84.04044	-1338.41211	-736.30280	665.73718	-1289.47314	-703.45288	457.53052	-1291.40405	-637.48694	280.55453	-1245.81091	-593.88361	92.95334	-1190.48474	-551.77136	42.37915	-1254.39465	-742.54095	32.79478	-1192.18787	-739.34418	1804.38013	-3356.86060	2845.93750	1034.10938						 
199	1.980	-1092.52502	-836.17993	1733.28809	-1234.76233	-849.55676	1716.15454	-1098.97180	-702.50006	1664.86719	-1240.77917	-703.11945	1645.90564	-1185.36682	-651.51013	1523.05994	-1196.51062	-596.74866	1247.70349	-1149.82800	-786.82654	1452.13977	-1158.32336	-838.34558	1279.93005	-1261.82312	-605.30725	1351.08057	-995.17578	-687.00354	1491.35681	-921.88928	-638.06116	1296.22131	-917.57007	-608.83856	1160.70361	-894.24640	-576.32172	1036.57239	-890.56189	-601.10083	898.13635	-880.90881	-547.54932	915.99042	-867.63538	-546.67200	849.30652	-1352.97864	-763.63739	1493.95984	-1446.20154	-785.78265	1304.37012	-1463.23450	-834.64471	1165.39880	-1470.82092	-894.96149	1060.49072	-1437.85278	-965.77679	949.03192	-1481.30933	-931.83423	935.62488	-1474.90466	-985.01788	886.99847	-1031.91931	-821.95734	992.09808	-1288.69702	-842.30328	971.43335	-1129.38806	-618.24957	1026.98499	-1243.70227	-621.28345	1025.73328	-956.91724	-800.05945	686.35913	-983.15063	-834.83789	485.54745	-983.19427	-844.41937	291.73004	-982.19476	-935.93445	82.25022	-1041.30737	-932.65057	48.98925	-924.59888	-1082.37292	86.97952	-1338.28088	-741.17242	665.21423	-1289.43311	-706.72028	457.32596	-1291.23352	-639.33691	280.78134	-1245.68445	-594.33533	93.47598	-1190.13843	-552.03656	43.10226	-1254.61963	-742.70886	32.83810	-1190.94751	-746.42810	1803.61853	-3356.89038	2845.91968	1034.13721						 
200	1.990	-1091.01563	-843.06500	1732.22998	-1233.36243	-856.58813	1715.35400	-1097.76990	-709.33142	1663.85437	-1239.61218	-710.13458	1645.06226	-1183.94849	-658.83588	1521.85205	-1195.37683	-603.56317	1246.74377	-1148.85535	-793.61456	1451.10242	-1157.39966	-844.93805	1278.91968	-1260.96643	-612.02173	1350.32361	-994.31702	-693.89600	1490.25745	-921.05902	-644.76019	1295.19727	-916.96759	-615.16455	1160.07629	-893.44177	-581.50238	1036.56482	-889.56897	-603.75867	897.72803	-879.83350	-550.51556	916.43475	-866.95276	-548.47491	849.55273	-1351.91980	-770.67755	1492.85168	-1445.07666	-793.22369	1303.32336	-1461.81152	-843.60150	1164.64600	-1469.29321	-905.02600	1060.42468	-1435.65723	-977.35388	950.25006	-1478.81812	-943.46185	936.04327	-1472.08447	-997.12317	888.29388	-1031.64856	-828.81104	991.02728	-1288.50415	-848.85754	970.56287	-1128.76941	-625.01013	1026.10718	-1243.15918	-627.97571	1025.13293	-957.34290	-807.72253	685.00769	-983.79852	-844.48370	484.91946	-983.43457	-857.39569	291.52353	-980.98022	-953.06281	83.73202	-1040.83020	-950.34491	50.61110	-925.03247	-1100.93042	89.38896	-1338.13135	-746.06903	664.66992	-1289.43848	-710.22479	457.03336	-1291.16443	-641.26050	281.01462	-1245.49426	-594.76904	93.97380	-1189.79700	-552.30310	43.80178	-1254.66626	-742.88489	32.60070	-1189.46704	-753.41467	1802.71228	-3356.94092	2845.87769	1034.09766						 
